HIERARCHY
ROOT Hips
{
  OFFSET 0.000000 0.000000 0.000000
  CHANNELS 6 Xposition Yposition Zposition Zrotation Yrotation Xrotation
  JOINT Spine
  {
    OFFSET -0.000883 2.120903 -0.028059
    CHANNELS 3 Zrotation Yrotation Xrotation
    JOINT Spine1
    {
      OFFSET -0.002865 2.096658 0.129739
      CHANNELS 3 Zrotation Yrotation Xrotation
      JOINT Spine2
      {
        OFFSET -0.000072 2.101496 0.140380
        CHANNELS 3 Zrotation Yrotation Xrotation
        JOINT Neck
        {
          OFFSET 0.073278 1.835262 0.072900
          CHANNELS 3 Zrotation Yrotation Xrotation
          JOINT Head
          {
            OFFSET -0.033980 1.851628 -0.175733
            CHANNELS 3 Zrotation Yrotation Xrotation
            End Site
            {
              OFFSET 0 0 0
            }
          }
        }
        JOINT LeftShoulder
        {
          OFFSET 3.021134 1.180177 0.406022
          CHANNELS 3 Zrotation Yrotation Xrotation
          JOINT LeftArm
          {
            OFFSET 4.585380 -0.000000 -0.000000
            CHANNELS 3 Zrotation Yrotation Xrotation
            JOINT LeftForeArm
            {
              OFFSET 2.689350 -0.000000 -0.000000
              CHANNELS 3 Zrotation Yrotation Xrotation
              JOINT LeftHand
              {
                OFFSET 0.585058 -0.000000 -0.000000
                CHANNELS 3 Zrotation Yrotation Xrotation
                JOINT LeftHandIndex1
                {
                  OFFSET 0.471689 -0.000000 -0.000000
                  CHANNELS 3 Zrotation Yrotation Xrotation
                  End Site
                  {
                    OFFSET 0 0 0
                  }
                }
              }
            }
          }
        }
        JOINT RightShoulder
        {
          OFFSET -2.950738 1.188427 0.314298
          CHANNELS 3 Zrotation Yrotation Xrotation
          JOINT RightArm
          {
            OFFSET -4.474500 -0.000000 -0.000000
            CHANNELS 3 Zrotation Yrotation Xrotation
            JOINT RightForeArm
            {
              OFFSET -2.938960 -0.000000 -0.000000
              CHANNELS 3 Zrotation Yrotation Xrotation
              JOINT RightHand
              {
                OFFSET -0.405092 -0.000000 -0.000000
                CHANNELS 3 Zrotation Yrotation Xrotation
                JOINT RightHandIndex1
                {
                  OFFSET -0.326596 -0.000000 -0.000000
                  CHANNELS 3 Zrotation Yrotation Xrotation
                  End Site
                  {
                    OFFSET 0 0 0
                  }
                }
              }
            }
          }
        }
      }
    }
  }
  JOINT LeftUpLeg
  {
    OFFSET 2.251771 -6.186694 0.000000
    CHANNELS 3 Zrotation Yrotation Xrotation
    JOINT LeftLeg
    {
      OFFSET 2.266012 -6.225823 0.000000
      CHANNELS 3 Zrotation Yrotation Xrotation
      JOINT LeftFoot
      {
        OFFSET 0.237014 -0.651191 2.158476
        CHANNELS 3 Zrotation Yrotation Xrotation
        JOINT LeftToeBase
        {
          OFFSET 0.000000 -0.000000 1.129490
          CHANNELS 3 Zrotation Yrotation Xrotation
          End Site
          {
            OFFSET 0 0 0
          }
        }
      }
    }
  }
  JOINT RightUpLeg
  {
    OFFSET -2.280357 -6.265234 0.000000
    CHANNELS 3 Zrotation Yrotation Xrotation
    JOINT RightLeg
    {
      OFFSET -2.254897 -6.195283 0.000000
      CHANNELS 3 Zrotation Yrotation Xrotation
      JOINT RightFoot
      {
        OFFSET -0.283752 -0.779600 2.231370
        CHANNELS 3 Zrotation Yrotation Xrotation
        JOINT RightToeBase
        {
          OFFSET -0.000000 -0.000000 1.178990
          CHANNELS 3 Zrotation Yrotation Xrotation
          End Site
          {
            OFFSET 0 0 0
          }
        }
      }
    }
  }
}
MOTION
Frames: 12
Frame Time: 0.00833333
1.392650 15.716300 5.958060 -4.119010 -2.736670 9.957120 -9.940150 -14.799300 -15.179400 0.000000 0.000000 25.862800 20.860800 0.000000 -18.712400 0.000000 0.000000 -1.234790 20.650400 10.816500 -11.962700 0.000000 0.000000 21.301300 -28.272300 0.000000 -14.431900 0.000000 0.000000 0.168612 4.395380 -0.843953 -5.962760 1.492500 -1.208460 -7.508180 -0.931147 -0.785899 -4.516490 11.341800 4.918920 -7.581690 -3.614890 3.831130 14.308900 0.000000 -0.000000 0.000000 77.059400 10.052800 -43.987800 0.000000 0.000000 36.022000 15.200300 0.000000 -8.445820 0.000000 0.000000 7.125020 0.000000 -0.000000 0.000000 -74.866100 -10.805700 -38.946000 0.000000 0.000000 30.486400 -19.624400 0.000000 -14.774100 0.000000 0.000000 7.125020
1.393570 15.715800 5.961220 -4.127310 -2.766260 9.945330 -9.949870 -14.833400 -15.137300 0.000000 0.000000 25.861800 20.900900 0.000000 -18.747800 0.000000 0.000000 -1.149070 20.653300 10.757600 -11.943900 0.000000 0.000000 21.303100 -28.191400 0.000000 -14.447700 0.000000 0.000000 0.208911 4.444000 -0.809909 -5.994400 1.477980 -1.167480 -7.482530 -0.973712 -0.767113 -4.471310 11.310500 4.893050 -7.502830 -3.608060 3.814080 14.229700 0.000000 0.000000 0.000000 77.143300 10.108900 -43.932200 0.000000 0.000000 35.875300 14.978200 0.000000 -8.587870 0.000000 0.000000 7.125020 0.000000 0.000000 0.000000 -72.399500 -14.057800 -38.935000 0.000000 0.000000 28.087700 -4.373460 0.000000 -11.122700 0.000000 0.000000 7.125020
1.392650 15.716400 5.959460 -4.087340 -2.670680 9.948830 -9.972510 -14.750900 -15.182200 0.000000 0.000000 25.847600 20.757000 0.000000 -18.678600 0.000000 0.000000 -1.284730 20.626100 10.780400 -11.942300 0.000000 0.000000 21.318000 -28.301200 0.000000 -14.500500 0.000000 0.000000 0.264139 4.410310 -0.831897 -5.951290 1.479960 -1.192100 -7.512060 -0.951906 -0.778954 -4.527020 11.243100 4.902740 -7.589730 -3.555200 3.812590 14.286500 0.000000 -0.000000 0.000000 77.240200 10.190800 -43.984700 0.000000 0.000000 35.892800 15.166400 0.000000 -8.444040 0.000000 0.000000 7.125020 0.000000 -0.000000 0.000000 -72.613000 -13.749900 -38.966500 0.000000 0.000000 28.335800 -4.457800 0.000000 -11.082600 0.000000 0.000000 7.125020
1.392300 15.716400 5.960130 -4.072040 -2.664640 9.950070 -9.987080 -14.763300 -15.182000 0.000000 0.000000 25.838800 20.767900 0.000000 -18.655600 0.000000 0.000000 -1.334600 20.610800 10.784000 -11.950600 0.000000 0.000000 21.327700 -28.322200 0.000000 -14.469800 0.000000 0.000000 0.182772 4.408820 -0.821609 -5.955550 1.475270 -1.179160 -7.497480 -0.956097 -0.772010 -4.508510 11.281900 4.897760 -7.623770 -3.587080 3.809880 14.285500 0.000000 -0.000000 0.000000 77.328200 10.300000 -44.006800 0.000000 0.000000 35.874100 15.122000 0.000000 -8.420550 0.000000 0.000000 7.125020 0.000000 -0.000000 0.000000 -72.969800 -13.450400 -38.852300 0.000000 0.000000 28.573300 -5.608330 0.000000 -11.372800 0.000000 0.000000 7.125020
1.391960 15.716400 5.960560 -4.059880 -2.639050 9.950320 -9.995950 -14.752700 -15.186000 0.000000 0.000000 25.827200 20.738900 0.000000 -18.633700 0.000000 0.000000 -1.369880 20.601700 10.788300 -11.951100 0.000000 0.000000 21.340100 -28.351400 0.000000 -14.486800 0.000000 0.000000 0.196421 4.415070 -0.814334 -5.950700 1.470480 -1.169410 -7.496650 -0.964313 -0.767555 -4.510170 11.280600 4.891130 -7.647110 -3.590080 3.804300 14.286900 -0.000000 0.000000 0.000000 77.417300 10.387800 -44.033200 0.000000 0.000000 35.839900 15.112400 0.000000 -8.375250 0.000000 0.000000 7.125020 -0.000000 0.000000 0.000000 -72.926700 -13.592400 -38.819200 0.000000 0.000000 28.487900 -4.506960 0.000000 -11.175600 0.000000 0.000000 7.125020
1.391590 15.716400 5.961040 -4.048550 -2.612640 9.951200 -10.003400 -14.745800 -15.193500 0.000000 0.000000 25.821700 20.711900 0.000000 -18.619300 0.000000 0.000000 -1.388990 20.593300 10.797000 -11.947500 0.000000 0.000000 21.345900 -28.381700 0.000000 -14.507400 0.000000 0.000000 0.225611 4.423460 -0.806988 -5.946780 1.465010 -1.159630 -7.497730 -0.974401 -0.763264 -4.513400 11.285100 4.884070 -7.666500 -3.596700 3.799180 14.288100 0.000000 0.000000 0.000000 77.505800 10.473000 -44.071200 0.000000 0.000000 35.807600 15.106800 0.000000 -8.314510 0.000000 0.000000 7.125020 0.000000 0.000000 0.000000 -73.091700 -13.469000 -38.786500 0.000000 0.000000 28.576600 -4.433390 0.000000 -11.280000 0.000000 0.000000 7.125020
1.391230 15.716400 5.961820 -4.041790 -2.591410 9.952010 -10.006900 -14.745800 -15.198000 0.000000 0.000000 25.818100 20.694000 0.000000 -18.612600 0.000000 0.000000 -1.391560 20.589300 10.806600 -11.941300 0.000000 0.000000 21.349800 -28.406500 0.000000 -14.531700 0.000000 0.000000 0.265051 4.437070 -0.798416 -5.942670 1.460240 -1.148220 -7.501970 -0.986584 -0.758509 -4.520180 11.294500 4.877150 -7.666060 -3.606430 3.795670 14.282000 0.000000 -0.000000 0.000000 77.589800 10.557400 -44.123300 0.000000 0.000000 35.770200 15.086200 0.000000 -8.250270 0.000000 0.000000 7.125020 0.000000 -0.000000 0.000000 -73.246600 -13.355200 -38.766400 0.000000 0.000000 28.650600 -4.341420 0.000000 -11.392800 0.000000 0.000000 7.125020
1.390850 15.716400 5.962660 -4.036670 -2.570190 9.954270 -10.008000 -14.744900 -15.203300 0.000000 0.000000 25.813900 20.674900 0.000000 -18.608800 0.000000 0.000000 -1.382130 20.587100 10.818300 -11.936200 0.000000 0.000000 21.354500 -28.432500 0.000000 -14.558600 0.000000 0.000000 0.309904 4.452070 -0.790244 -5.937150 1.456050 -1.137120 -7.510740 -0.998831 -0.754126 -4.532600 11.295500 4.870070 -7.655730 -3.610520 3.792040 14.272400 0.000000 -0.000000 0.000000 77.666600 10.645200 -44.190100 0.000000 0.000000 35.732600 15.062200 0.000000 -8.172510 0.000000 0.000000 7.125020 0.000000 -0.000000 0.000000 -73.386500 -13.249300 -38.764100 0.000000 0.000000 28.722900 -4.263190 0.000000 -11.465600 0.000000 0.000000 7.125020
1.390440 15.716400 5.963620 -4.029740 -2.548090 9.956850 -10.011200 -14.743200 -15.208500 0.000000 0.000000 25.809400 20.654700 0.000000 -18.604800 0.000000 0.000000 -1.377220 20.583500 10.832400 -11.930400 0.000000 0.000000 21.360100 -28.461800 0.000000 -14.588600 0.000000 0.000000 0.353914 4.463880 -0.784340 -5.928830 1.452560 -1.128620 -7.524320 -1.008490 -0.751051 -4.551730 11.292500 4.863670 -7.635430 -3.611460 3.789180 14.260000 -0.000000 0.000000 0.000000 77.733700 10.741100 -44.275500 0.000000 0.000000 35.697100 15.035400 0.000000 -8.077500 0.000000 0.000000 7.125020 -0.000000 0.000000 0.000000 -73.506900 -13.157600 -38.777300 0.000000 0.000000 28.795300 -4.242540 0.000000 -11.468400 0.000000 0.000000 7.125020
1.390000 15.716500 5.964680 -4.020520 -2.527300 9.961390 -10.016600 -14.740600 -15.214400 0.000000 0.000000 25.803100 20.636200 0.000000 -18.597500 0.000000 0.000000 -1.385220 20.577500 10.846800 -11.929200 0.000000 0.000000 21.368200 -28.494600 0.000000 -14.612900 0.000000 0.000000 0.381837 4.471430 -0.779355 -5.920640 1.449880 -1.121120 -7.540710 -1.014900 -0.748336 -4.573680 11.284400 4.856830 -7.618030 -3.610300 3.785770 14.251200 -0.000000 0.000000 0.000000 77.793400 10.843600 -44.371600 0.000000 0.000000 35.659100 15.008600 0.000000 -7.975030 0.000000 0.000000 7.125020 -0.000000 0.000000 0.000000 -73.612100 -13.079200 -38.800700 0.000000 0.000000 28.854400 -4.216330 0.000000 -11.463400 0.000000 0.000000 7.125020
1.389560 15.716500 5.965820 -4.011370 -2.508080 9.967350 -10.022300 -14.736600 -15.220700 0.000000 0.000000 25.796600 20.620500 0.000000 -18.587400 0.000000 0.000000 -1.410450 20.571300 10.865800 -11.930100 0.000000 0.000000 21.377500 -28.531800 0.000000 -14.635800 0.000000 0.000000 0.400709 4.478420 -0.774834 -5.914430 1.447620 -1.114340 -7.557150 -1.020620 -0.745925 -4.594590 11.265500 4.848710 -7.607310 -3.603740 3.780460 14.245500 -0.000000 0.000000 0.000000 77.844500 10.953000 -44.472500 0.000000 0.000000 35.615500 14.979000 0.000000 -7.859800 0.000000 0.000000 7.125020 -0.000000 0.000000 0.000000 -73.704500 -13.015000 -38.831000 0.000000 0.000000 28.901100 -4.178300 0.000000 -11.456300 0.000000 0.000000 7.125020
1.389170 15.716500 5.967210 -4.000470 -2.487940 9.974460 -10.030400 -14.734400 -15.226600 0.000000 0.000000 25.790100 20.605600 0.000000 -18.576800 0.000000 0.000000 -1.440690 20.563000 10.881400 -11.931600 0.000000 0.000000 21.387400 -28.567400 0.000000 -14.659800 0.000000 0.000000 0.416523 4.485000 -0.770178 -5.913980 1.444200 -1.107800 -7.571740 -1.027450 -0.743540 -4.610310 11.244100 4.838900 -7.607670 -3.596990 3.773420 14.245800 -0.000000 -0.000000 0.000000 77.892500 11.060100 -44.571500 0.000000 0.000000 35.562100 14.956100 0.000000 -7.741920 0.000000 0.000000 7.125020 -0.000000 -0.000000 0.000000 -73.778800 -12.973200 -38.866700 0.000000 0.000000 28.941200 -4.183430 0.000000 -11.405600 0.000000 0.000000 7.125020
